# xmcd
#
# Track frame offsets:
#	150
#	12311
#	28861
#	51457
#	67862
#	82100
#	96655
#	112637
#	124024
#	136424
#	149026
#	160633
#	170995
#	183845
#	197708
#	209019
#	220234
#	230009
#	242636
#	257164
#	268566
#	280126
#	293502
#	306448
#	316950
#	330079
#	344495
#
# Disc length: 4785 seconds
# Revision: 0
# Processed by: cddbd v1.5.2PL0 Copyright (c) Steve Scherf et al.
# Submitted via: dBpowerAMP V12.0
#
DISCID=a012af1b
DTITLE=Various Artist - Original Queen of Soul: Three Decades Of Artistry, Disc 3
DYEAR=2014
DGENRE=Jazz
TTITLE0=Eddie Chamblee and Orchestra w Dinah Washington - Everybody Loves My Baby
TTITLE1=Eddie Chamblee and Orchestra - After You've Gone
TTITLE2=Eddie Chamblee and Orchestra - Backwater Blues
TTITLE3=Eddie Chamblee and Orchestra - Careless Love
TTITLE4=Eddie Chamblee and Orchestra - Fine Fat Daddy
TTITLE5=Eddie Chamblee and Orchestra - Me and My Gin
TTITLE6=Eddie Chamblee and Orchestra - Trombone Butter
TTITLE7=Dinah Washington - What a Diff'rence a Day Makes
TTITLE8=Dinah Washington - Unforgettable
TTITLE9=Dinah Washington - Baby (You've Got What It Takes)
TTITLE10=Nat Goodman Orchestra - Daybreak
TTITLE11=Fred Norman Orchestra - Forgotton
TTITLE12=Nat Goodman Orchestra - Good Morning, Heartache
TTITLE13=Fred Norman Orchestra - Harbor Lights
TTITLE14=Fred Norman Orchestra - I'll Never Kiss You Goodbye
TTITLE15=Dinah Washington - A Rockin' Good Way (To Mess Around and Fall In Love)
TTITLE16=Nat Goodman Orchestra - September In the Rain
TTITLE17=Nat Goodman Orchestra - Tell Love Hello
TTITLE18=Quincy Jones and His Orchestra - I Don't Hurt Anymore
TTITLE19=Belford Hendricks Orchestra - Softly (Baby)
TTITLE20=Dinah Washington - Red Sails In the Sunset
TTITLE21=Dinah Washington - Coquette
TTITLE22=Dinah Washington - I'll Close My Eyes
TTITLE23=Dinah Washington - Do Nothin' till You Hear From Me
TTITLE24=Dinah Washington - That's My Desire
TTITLE25=Dinah Washington - Say It Isn't So
TTITLE26=Dinah Washington - It's a Mean Old Man's World
EXTD=
EXTT0=
EXTT1=
EXTT2=
EXTT3=
EXTT4=
EXTT5=
EXTT6=
EXTT7=
EXTT8=
EXTT9=
EXTT10=
EXTT11=
EXTT12=
EXTT13=
EXTT14=
EXTT15=
EXTT16=
EXTT17=
EXTT18=
EXTT19=
EXTT20=
EXTT21=
EXTT22=
EXTT23=
EXTT24=
EXTT25=
EXTT26=
PLAYORDER=
